<?xml version="1.0" encoding="UTF-8" standalone="no"?>
<!-- Created with Inkscape (http://www.inkscape.org/) -->

<svg
   xmlns:dc="http://purl.org/dc/elements/1.1/"
   xmlns:cc="http://creativecommons.org/ns#"
   xmlns:rdf="http://www.w3.org/1999/02/22-rdf-syntax-ns#"
   xmlns:svg="http://www.w3.org/2000/svg"
   xmlns="http://www.w3.org/2000/svg"
   xmlns:sodipodi="http://sodipodi.sourceforge.net/DTD/sodipodi-0.dtd"
   xmlns:inkscape="http://www.inkscape.org/namespaces/inkscape"
   id="svg2"
   version="1.1"
   inkscape:version="0.91 r13725"
   xml:space="preserve"
   width="320"
   height="100"
   viewBox="0 0 320 100"
   sodipodi:docname="oracle.svg"><metadata
     id="metadata8"><rdf:RDF><cc:Work
         rdf:about=""><dc:format>image/svg+xml</dc:format><dc:type
           rdf:resource="http://purl.org/dc/dcmitype/StillImage" /><dc:title></dc:title></cc:Work></rdf:RDF></metadata><defs
     id="defs6" /><sodipodi:namedview
     pagecolor="#ffffff"
     bordercolor="#666666"
     borderopacity="1"
     objecttolerance="10"
     gridtolerance="10"
     guidetolerance="10"
     inkscape:pageopacity="0"
     inkscape:pageshadow="2"
     inkscape:window-width="2880"
     inkscape:window-height="1491"
     id="namedview4"
     showgrid="false"
     inkscape:zoom="8.9992431"
     inkscape:cx="125.89948"
     inkscape:cy="19"
     inkscape:window-x="0"
     inkscape:window-y="55"
     inkscape:window-maximized="1"
     inkscape:current-layer="g10"
     fit-margin-top="0"
     fit-margin-left="0"
     fit-margin-right="0"
     fit-margin-bottom="0" /><g
     id="g10"
     inkscape:groupmode="layer"
     inkscape:label="ink_ext_XXXXXX"
     transform="matrix(1.25,0,0,-1.25,-5.0346627,111.0708)"><g
       id="g12"
       transform="matrix(0.36796675,0,0,0.36796675,-3.0326808,18.850902)"><path
         d="m 312.297,69.2109 41.633,0 -21.992,35.4491 -40.379,-64.078 -18.407,-0.0156 49.157,76.9496 c 2.086,3.129 5.683,5.007 9.601,5.007 3.867,0 7.418,-1.824 9.512,-4.871 l 49.32,-77.0856 -18.414,0.0156 -8.637,14.3203 -42.191,0 -9.203,14.3086 z m 191.035,-14.3242 0,66.8363 -15.617,0 0,-73.3675 c 0,-2.0313 0.824,-3.9688 2.273,-5.4219 1.532,-1.5117 3.547,-2.3516 5.719,-2.3516 l 71.156,0 9.184,14.3047 -72.715,0 z M 245.176,66.8516 c 15.144,0 27.429,12.289 27.429,27.4375 0,15.1489 -12.285,27.4339 -27.429,27.4339 l -68.285,0 0,-81.141 15.593,0 0,66.84 51.618,0 c 7.269,0 13.128,-5.875 13.128,-13.1329 0,-7.2539 -5.859,-13.1407 -13.128,-13.1407 l -43.973,0.0157 46.566,-40.5821 22.668,0 -31.332,26.2813 7.145,-0.0117 z M 80.8555,40.582 c -22.4024,0 -40.5782,18.1524 -40.5782,40.5664 0,22.4106 18.1758,40.5746 40.5782,40.5746 l 47.1645,0 c 22.406,0 40.57,-18.164 40.57,-40.5746 0,-22.4179 -18.164,-40.582 -40.57,-40.582 L 80.8555,40.582 Z m 46.1135,14.2969 c 14.511,0 26.261,11.7578 26.261,26.2695 0,14.5118 -11.75,26.2696 -26.261,26.2696 l -45.0706,0.004 c -14.5039,0 -26.2695,-11.7618 -26.2695,-26.2736 0,-14.5117 11.7656,-26.2695 26.2695,-26.2695 l 45.0706,0 z M 423.297,40.582 c -22.399,0 -40.578,18.1524 -40.578,40.5664 0,22.4106 18.179,40.5746 40.578,40.5746 l 56.051,0 -9.188,-14.305 -45.808,0.004 c -14.516,0 -26.282,-11.7618 -26.282,-26.2736 0,-14.5117 11.766,-26.2695 26.282,-26.2695 l 56.257,0 -9.164,-14.2969 -48.148,0 z m 190.879,14.2969 c -12.008,0 -22.164,8.0742 -25.266,19.0899 l 66.699,0 9.192,14.3085 -75.91,0.004 c 3.105,11.0468 13.25,19.1407 25.285,19.1407 l 45.781,-0.004 9.199,14.305 -56.051,0 c -22.39,0 -40.57,-18.164 -40.57,-40.5746 0,-22.414 18.18,-40.5664 40.57,-40.5664 l 48.149,0 9.172,14.2969 -56.25,0"
         style="fill:#eb222c;fill-opacity:1;fill-rule:nonzero;stroke:none"
         id="path14"
         inkscape:connector-curvature="0" /><path
         d="m 677.516,113.086 c 0,3.957 3.203,7.164 7.168,7.164 3.964,0 7.156,-3.207 7.156,-7.164 0,-3.977 -3.192,-7.184 -7.156,-7.184 -3.965,0 -7.168,3.207 -7.168,7.184 z m 7.168,-9.156 c 5.039,0 9.129,4.09 9.129,9.121 0,5.047 -4.09,9.121 -9.129,9.121 -5.032,0 -9.114,-4.074 -9.114,-9.121 0,-5.031 4.082,-9.121 9.114,-9.121 z m -0.86,14.539 c 1.406,0 1.981,-0.016 2.676,-0.278 1.797,-0.601 1.98,-2.257 1.98,-2.863 0,-0.129 -0.019,-0.476 -0.105,-0.84 -0.109,-0.386 -0.332,-1.168 -1.27,-1.754 -0.109,-0.078 -0.167,-0.132 -0.46,-0.238 l 2.375,-4.25 -2.297,0 -2.078,3.906 -1.387,0 0,-3.906 -2.004,0 0,10.223 2.57,0 z m 0.711,-4.621 c 0.617,0.007 1.301,0.058 1.699,0.64 0.168,0.254 0.235,0.528 0.235,0.879 0,0.551 -0.293,1 -0.77,1.238 -0.461,0.176 -0.929,0.176 -1.875,0.176 l -0.566,0 0,-2.933 1.277,0"
         style="fill:#eb222c;fill-opacity:1;fill-rule:nonzero;stroke:none"
         id="path16"
         inkscape:connector-curvature="0" /></g></g></svg>